%TF.GenerationSoftware,KiCad,Pcbnew,7.0.8*%
%TF.CreationDate,2023-11-14T13:05:45-05:00*%
%TF.ProjectId,KiCad Files,4b694361-6420-4466-996c-65732e6b6963,rev?*%
%TF.SameCoordinates,Original*%
%TF.FileFunction,Paste,Bot*%
%TF.FilePolarity,Positive*%
%FSLAX46Y46*%
G04 Gerber Fmt 4.6, Leading zero omitted, Abs format (unit mm)*
G04 Created by KiCad (PCBNEW 7.0.8) date 2023-11-14 13:05:45*
%MOMM*%
%LPD*%
G01*
G04 APERTURE LIST*
G04 Aperture macros list*
%AMRoundRect*
0 Rectangle with rounded corners*
0 $1 Rounding radius*
0 $2 $3 $4 $5 $6 $7 $8 $9 X,Y pos of 4 corners*
0 Add a 4 corners polygon primitive as box body*
4,1,4,$2,$3,$4,$5,$6,$7,$8,$9,$2,$3,0*
0 Add four circle primitives for the rounded corners*
1,1,$1+$1,$2,$3*
1,1,$1+$1,$4,$5*
1,1,$1+$1,$6,$7*
1,1,$1+$1,$8,$9*
0 Add four rect primitives between the rounded corners*
20,1,$1+$1,$2,$3,$4,$5,0*
20,1,$1+$1,$4,$5,$6,$7,0*
20,1,$1+$1,$6,$7,$8,$9,0*
20,1,$1+$1,$8,$9,$2,$3,0*%
G04 Aperture macros list end*
%ADD10RoundRect,0.243750X0.456250X-0.243750X0.456250X0.243750X-0.456250X0.243750X-0.456250X-0.243750X0*%
%ADD11RoundRect,0.250000X0.450000X-0.262500X0.450000X0.262500X-0.450000X0.262500X-0.450000X-0.262500X0*%
%ADD12R,1.800000X1.100000*%
%ADD13RoundRect,0.250000X-0.450000X0.262500X-0.450000X-0.262500X0.450000X-0.262500X0.450000X0.262500X0*%
%ADD14RoundRect,0.250000X0.250000X0.475000X-0.250000X0.475000X-0.250000X-0.475000X0.250000X-0.475000X0*%
%ADD15R,1.500000X0.550000*%
%ADD16R,0.550000X1.500000*%
%ADD17RoundRect,0.250000X0.475000X-0.250000X0.475000X0.250000X-0.475000X0.250000X-0.475000X-0.250000X0*%
%ADD18R,0.500000X2.250000*%
%ADD19RoundRect,0.250000X-0.625000X0.375000X-0.625000X-0.375000X0.625000X-0.375000X0.625000X0.375000X0*%
%ADD20RoundRect,0.250000X-0.475000X0.250000X-0.475000X-0.250000X0.475000X-0.250000X0.475000X0.250000X0*%
%ADD21R,1.400000X1.200000*%
G04 APERTURE END LIST*
D10*
%TO.C,D4*%
X192058750Y-113936250D03*
X192058750Y-112061250D03*
%TD*%
D11*
%TO.C,R4*%
X152400000Y-101837500D03*
X152400000Y-100012500D03*
%TD*%
D12*
%TO.C,SW1*%
X140375000Y-108175000D03*
X146575000Y-104475000D03*
X140375000Y-104475000D03*
X146575000Y-108175000D03*
%TD*%
D13*
%TO.C,R1*%
X132390000Y-82077500D03*
X132390000Y-83902500D03*
%TD*%
D14*
%TO.C,C3*%
X133810000Y-88390000D03*
X131910000Y-88390000D03*
%TD*%
D15*
%TO.C,U1*%
X137810000Y-95360000D03*
X137810000Y-94560000D03*
X137810000Y-93760000D03*
X137810000Y-92960000D03*
X137810000Y-92160000D03*
X137810000Y-91360000D03*
X137810000Y-90560000D03*
X137810000Y-89760000D03*
X137810000Y-88960000D03*
X137810000Y-88160000D03*
X137810000Y-87360000D03*
D16*
X139510000Y-85660000D03*
X140310000Y-85660000D03*
X141110000Y-85660000D03*
X141910000Y-85660000D03*
X142710000Y-85660000D03*
X143510000Y-85660000D03*
X144310000Y-85660000D03*
X145110000Y-85660000D03*
X145910000Y-85660000D03*
X146710000Y-85660000D03*
X147510000Y-85660000D03*
D15*
X149210000Y-87360000D03*
X149210000Y-88160000D03*
X149210000Y-88960000D03*
X149210000Y-89760000D03*
X149210000Y-90560000D03*
X149210000Y-91360000D03*
X149210000Y-92160000D03*
X149210000Y-92960000D03*
X149210000Y-93760000D03*
X149210000Y-94560000D03*
X149210000Y-95360000D03*
D16*
X147510000Y-97060000D03*
X146710000Y-97060000D03*
X145910000Y-97060000D03*
X145110000Y-97060000D03*
X144310000Y-97060000D03*
X143510000Y-97060000D03*
X142710000Y-97060000D03*
X141910000Y-97060000D03*
X141110000Y-97060000D03*
X140310000Y-97060000D03*
X139510000Y-97060000D03*
%TD*%
D17*
%TO.C,C4*%
X135830000Y-83940000D03*
X135830000Y-82040000D03*
%TD*%
D13*
%TO.C,R3*%
X120650000Y-84917500D03*
X120650000Y-86742500D03*
%TD*%
D14*
%TO.C,C6*%
X148890000Y-100380000D03*
X146990000Y-100380000D03*
%TD*%
D10*
%TO.C,D3*%
X172861250Y-113946250D03*
X172861250Y-112071250D03*
%TD*%
D13*
%TO.C,R2*%
X123460000Y-84887500D03*
X123460000Y-86712500D03*
%TD*%
D18*
%TO.C,USB1*%
X124120000Y-77690000D03*
X123320000Y-77690000D03*
X122520000Y-77690000D03*
X121720000Y-77690000D03*
X120920000Y-77690000D03*
%TD*%
D19*
%TO.C,F1*%
X115960000Y-88810000D03*
X115960000Y-91610000D03*
%TD*%
D20*
%TO.C,C7*%
X134375000Y-95550000D03*
X134375000Y-97450000D03*
%TD*%
D10*
%TO.C,D1*%
X108960000Y-114100000D03*
X108960000Y-112225000D03*
%TD*%
D17*
%TO.C,C2*%
X139740000Y-80700000D03*
X139740000Y-78800000D03*
%TD*%
D10*
%TO.C,D2*%
X128430000Y-114102500D03*
X128430000Y-112227500D03*
%TD*%
D20*
%TO.C,C1*%
X148080000Y-78810000D03*
X148080000Y-80710000D03*
%TD*%
D21*
%TO.C,Y1*%
X145180000Y-80630000D03*
X142980000Y-80630000D03*
X142980000Y-78930000D03*
X145180000Y-78930000D03*
%TD*%
D17*
%TO.C,C5*%
X155575000Y-88262500D03*
X155575000Y-86362500D03*
%TD*%
M02*
