%TF.GenerationSoftware,KiCad,Pcbnew,7.0.8*%
%TF.CreationDate,2023-11-14T13:05:45-05:00*%
%TF.ProjectId,KiCad Files,4b694361-6420-4466-996c-65732e6b6963,rev?*%
%TF.SameCoordinates,Original*%
%TF.FileFunction,Copper,L2,Bot*%
%TF.FilePolarity,Positive*%
%FSLAX46Y46*%
G04 Gerber Fmt 4.6, Leading zero omitted, Abs format (unit mm)*
G04 Created by KiCad (PCBNEW 7.0.8) date 2023-11-14 13:05:45*
%MOMM*%
%LPD*%
G01*
G04 APERTURE LIST*
G04 Aperture macros list*
%AMRoundRect*
0 Rectangle with rounded corners*
0 $1 Rounding radius*
0 $2 $3 $4 $5 $6 $7 $8 $9 X,Y pos of 4 corners*
0 Add a 4 corners polygon primitive as box body*
4,1,4,$2,$3,$4,$5,$6,$7,$8,$9,$2,$3,0*
0 Add four circle primitives for the rounded corners*
1,1,$1+$1,$2,$3*
1,1,$1+$1,$4,$5*
1,1,$1+$1,$6,$7*
1,1,$1+$1,$8,$9*
0 Add four rect primitives between the rounded corners*
20,1,$1+$1,$2,$3,$4,$5,0*
20,1,$1+$1,$4,$5,$6,$7,0*
20,1,$1+$1,$6,$7,$8,$9,0*
20,1,$1+$1,$8,$9,$2,$3,0*%
%AMHorizOval*
0 Thick line with rounded ends*
0 $1 width*
0 $2 $3 position (X,Y) of the first rounded end (center of the circle)*
0 $4 $5 position (X,Y) of the second rounded end (center of the circle)*
0 Add line between two ends*
20,1,$1,$2,$3,$4,$5,0*
0 Add two circle primitives to create the rounded ends*
1,1,$1,$2,$3*
1,1,$1,$4,$5*%
G04 Aperture macros list end*
%TA.AperFunction,ComponentPad*%
%ADD10HorizOval,2.250000X0.655001X0.730000X-0.655001X-0.730000X0*%
%TD*%
%TA.AperFunction,ComponentPad*%
%ADD11C,2.250000*%
%TD*%
%TA.AperFunction,ComponentPad*%
%ADD12HorizOval,2.250000X0.020000X0.290000X-0.020000X-0.290000X0*%
%TD*%
%TA.AperFunction,SMDPad,CuDef*%
%ADD13RoundRect,0.243750X0.456250X-0.243750X0.456250X0.243750X-0.456250X0.243750X-0.456250X-0.243750X0*%
%TD*%
%TA.AperFunction,SMDPad,CuDef*%
%ADD14RoundRect,0.250000X0.450000X-0.262500X0.450000X0.262500X-0.450000X0.262500X-0.450000X-0.262500X0*%
%TD*%
%TA.AperFunction,SMDPad,CuDef*%
%ADD15R,1.800000X1.100000*%
%TD*%
%TA.AperFunction,SMDPad,CuDef*%
%ADD16RoundRect,0.250000X-0.450000X0.262500X-0.450000X-0.262500X0.450000X-0.262500X0.450000X0.262500X0*%
%TD*%
%TA.AperFunction,SMDPad,CuDef*%
%ADD17RoundRect,0.250000X0.250000X0.475000X-0.250000X0.475000X-0.250000X-0.475000X0.250000X-0.475000X0*%
%TD*%
%TA.AperFunction,SMDPad,CuDef*%
%ADD18R,1.500000X0.550000*%
%TD*%
%TA.AperFunction,SMDPad,CuDef*%
%ADD19R,0.550000X1.500000*%
%TD*%
%TA.AperFunction,SMDPad,CuDef*%
%ADD20RoundRect,0.250000X0.475000X-0.250000X0.475000X0.250000X-0.475000X0.250000X-0.475000X-0.250000X0*%
%TD*%
%TA.AperFunction,SMDPad,CuDef*%
%ADD21R,0.500000X2.250000*%
%TD*%
%TA.AperFunction,ComponentPad*%
%ADD22O,1.700000X2.700000*%
%TD*%
%TA.AperFunction,SMDPad,CuDef*%
%ADD23RoundRect,0.250000X-0.625000X0.375000X-0.625000X-0.375000X0.625000X-0.375000X0.625000X0.375000X0*%
%TD*%
%TA.AperFunction,SMDPad,CuDef*%
%ADD24RoundRect,0.250000X-0.475000X0.250000X-0.475000X-0.250000X0.475000X-0.250000X0.475000X0.250000X0*%
%TD*%
%TA.AperFunction,SMDPad,CuDef*%
%ADD25R,1.400000X1.200000*%
%TD*%
%TA.AperFunction,ViaPad*%
%ADD26C,0.800000*%
%TD*%
%TA.AperFunction,Conductor*%
%ADD27C,0.381000*%
%TD*%
%TA.AperFunction,Conductor*%
%ADD28C,0.250000*%
%TD*%
%TA.AperFunction,Conductor*%
%ADD29C,0.200000*%
%TD*%
G04 APERTURE END LIST*
D10*
%TO.P,MX4,1,COL*%
%TO.N,COL1*%
X180525001Y-109740000D03*
D11*
X181180000Y-109010000D03*
D12*
%TO.P,MX4,2,ROW*%
%TO.N,Net-(D4-A)*%
X186200000Y-108220000D03*
D11*
X186220000Y-107930000D03*
%TD*%
D10*
%TO.P,MX2,1,COL*%
%TO.N,COL1*%
X117095001Y-109872500D03*
D11*
X117750000Y-109142500D03*
D12*
%TO.P,MX2,2,ROW*%
%TO.N,Net-(D2-A)*%
X122770000Y-108352500D03*
D11*
X122790000Y-108062500D03*
%TD*%
D10*
%TO.P,MX3,1,COL*%
%TO.N,COL0*%
X161255001Y-109740000D03*
D11*
X161910000Y-109010000D03*
D12*
%TO.P,MX3,2,ROW*%
%TO.N,Net-(D3-A)*%
X166930000Y-108220000D03*
D11*
X166950000Y-107930000D03*
%TD*%
D10*
%TO.P,MX1,1,COL*%
%TO.N,COL0*%
X97625001Y-109880000D03*
D11*
X98280000Y-109150000D03*
D12*
%TO.P,MX1,2,ROW*%
%TO.N,Net-(D1-A)*%
X103300000Y-108360000D03*
D11*
X103320000Y-108070000D03*
%TD*%
D13*
%TO.P,D4,1,K*%
%TO.N,ROW1*%
X192058750Y-113936250D03*
%TO.P,D4,2,A*%
%TO.N,Net-(D4-A)*%
X192058750Y-112061250D03*
%TD*%
D14*
%TO.P,R4,1*%
%TO.N,Net-(U1-~{HWB}{slash}PE2)*%
X152400000Y-101837500D03*
%TO.P,R4,2*%
%TO.N,GND*%
X152400000Y-100012500D03*
%TD*%
D15*
%TO.P,SW1,1,1*%
%TO.N,GND*%
X140375000Y-108175000D03*
%TO.P,SW1,2,2*%
%TO.N,Net-(U1-~{RESET})*%
X146575000Y-104475000D03*
%TO.P,SW1,3*%
%TO.N,N/C*%
X140375000Y-104475000D03*
%TO.P,SW1,4*%
X146575000Y-108175000D03*
%TD*%
D16*
%TO.P,R1,1*%
%TO.N,+5V*%
X132390000Y-82077500D03*
%TO.P,R1,2*%
%TO.N,Net-(U1-~{RESET})*%
X132390000Y-83902500D03*
%TD*%
D17*
%TO.P,C3,1*%
%TO.N,Net-(U1-UCAP)*%
X133810000Y-88390000D03*
%TO.P,C3,2*%
%TO.N,GND*%
X131910000Y-88390000D03*
%TD*%
D18*
%TO.P,U1,1,PE6*%
%TO.N,unconnected-(U1-PE6-Pad1)*%
X137810000Y-95360000D03*
%TO.P,U1,2,UVCC*%
%TO.N,+5V*%
X137810000Y-94560000D03*
%TO.P,U1,3,D-*%
%TO.N,Net-(U1-D-)*%
X137810000Y-93760000D03*
%TO.P,U1,4,D+*%
%TO.N,Net-(U1-D+)*%
X137810000Y-92960000D03*
%TO.P,U1,5,UGND*%
%TO.N,GND*%
X137810000Y-92160000D03*
%TO.P,U1,6,UCAP*%
%TO.N,Net-(U1-UCAP)*%
X137810000Y-91360000D03*
%TO.P,U1,7,VBUS*%
%TO.N,+5V*%
X137810000Y-90560000D03*
%TO.P,U1,8,PB0*%
%TO.N,unconnected-(U1-PB0-Pad8)*%
X137810000Y-89760000D03*
%TO.P,U1,9,PB1*%
%TO.N,unconnected-(U1-PB1-Pad9)*%
X137810000Y-88960000D03*
%TO.P,U1,10,PB2*%
%TO.N,unconnected-(U1-PB2-Pad10)*%
X137810000Y-88160000D03*
%TO.P,U1,11,PB3*%
%TO.N,unconnected-(U1-PB3-Pad11)*%
X137810000Y-87360000D03*
D19*
%TO.P,U1,12,PB7*%
%TO.N,unconnected-(U1-PB7-Pad12)*%
X139510000Y-85660000D03*
%TO.P,U1,13,~{RESET}*%
%TO.N,Net-(U1-~{RESET})*%
X140310000Y-85660000D03*
%TO.P,U1,14,VCC*%
%TO.N,+5V*%
X141110000Y-85660000D03*
%TO.P,U1,15,GND*%
%TO.N,GND*%
X141910000Y-85660000D03*
%TO.P,U1,16,XTAL2*%
%TO.N,Net-(U1-XTAL2)*%
X142710000Y-85660000D03*
%TO.P,U1,17,XTAL1*%
%TO.N,Net-(U1-XTAL1)*%
X143510000Y-85660000D03*
%TO.P,U1,18,PD0*%
%TO.N,unconnected-(U1-PD0-Pad18)*%
X144310000Y-85660000D03*
%TO.P,U1,19,PD1*%
%TO.N,unconnected-(U1-PD1-Pad19)*%
X145110000Y-85660000D03*
%TO.P,U1,20,PD2*%
%TO.N,unconnected-(U1-PD2-Pad20)*%
X145910000Y-85660000D03*
%TO.P,U1,21,PD3*%
%TO.N,unconnected-(U1-PD3-Pad21)*%
X146710000Y-85660000D03*
%TO.P,U1,22,PD5*%
%TO.N,unconnected-(U1-PD5-Pad22)*%
X147510000Y-85660000D03*
D18*
%TO.P,U1,23,GND*%
%TO.N,GND*%
X149210000Y-87360000D03*
%TO.P,U1,24,AVCC*%
%TO.N,+5V*%
X149210000Y-88160000D03*
%TO.P,U1,25,PD4*%
%TO.N,unconnected-(U1-PD4-Pad25)*%
X149210000Y-88960000D03*
%TO.P,U1,26,PD6*%
%TO.N,unconnected-(U1-PD6-Pad26)*%
X149210000Y-89760000D03*
%TO.P,U1,27,PD7*%
%TO.N,ROW0*%
X149210000Y-90560000D03*
%TO.P,U1,28,PB4*%
%TO.N,COL1*%
X149210000Y-91360000D03*
%TO.P,U1,29,PB5*%
%TO.N,COL0*%
X149210000Y-92160000D03*
%TO.P,U1,30,PB6*%
%TO.N,ROW1*%
X149210000Y-92960000D03*
%TO.P,U1,31,PC6*%
%TO.N,unconnected-(U1-PC6-Pad31)*%
X149210000Y-93760000D03*
%TO.P,U1,32,PC7*%
%TO.N,unconnected-(U1-PC7-Pad32)*%
X149210000Y-94560000D03*
%TO.P,U1,33,~{HWB}/PE2*%
%TO.N,Net-(U1-~{HWB}{slash}PE2)*%
X149210000Y-95360000D03*
D19*
%TO.P,U1,34,VCC*%
%TO.N,+5V*%
X147510000Y-97060000D03*
%TO.P,U1,35,GND*%
%TO.N,GND*%
X146710000Y-97060000D03*
%TO.P,U1,36,PF7*%
%TO.N,unconnected-(U1-PF7-Pad36)*%
X145910000Y-97060000D03*
%TO.P,U1,37,PF6*%
%TO.N,unconnected-(U1-PF6-Pad37)*%
X145110000Y-97060000D03*
%TO.P,U1,38,PF5*%
%TO.N,unconnected-(U1-PF5-Pad38)*%
X144310000Y-97060000D03*
%TO.P,U1,39,PF4*%
%TO.N,unconnected-(U1-PF4-Pad39)*%
X143510000Y-97060000D03*
%TO.P,U1,40,PF1*%
%TO.N,unconnected-(U1-PF1-Pad40)*%
X142710000Y-97060000D03*
%TO.P,U1,41,PF0*%
%TO.N,unconnected-(U1-PF0-Pad41)*%
X141910000Y-97060000D03*
%TO.P,U1,42,AREF*%
%TO.N,unconnected-(U1-AREF-Pad42)*%
X141110000Y-97060000D03*
%TO.P,U1,43,GND*%
%TO.N,GND*%
X140310000Y-97060000D03*
%TO.P,U1,44,AVCC*%
%TO.N,+5V*%
X139510000Y-97060000D03*
%TD*%
D20*
%TO.P,C4,1*%
%TO.N,+5V*%
X135830000Y-83940000D03*
%TO.P,C4,2*%
%TO.N,GND*%
X135830000Y-82040000D03*
%TD*%
D16*
%TO.P,R3,1*%
%TO.N,D-*%
X120650000Y-84917500D03*
%TO.P,R3,2*%
%TO.N,Net-(U1-D-)*%
X120650000Y-86742500D03*
%TD*%
D17*
%TO.P,C6,1*%
%TO.N,+5V*%
X148890000Y-100380000D03*
%TO.P,C6,2*%
%TO.N,GND*%
X146990000Y-100380000D03*
%TD*%
D13*
%TO.P,D3,1,K*%
%TO.N,ROW1*%
X172861250Y-113946250D03*
%TO.P,D3,2,A*%
%TO.N,Net-(D3-A)*%
X172861250Y-112071250D03*
%TD*%
D16*
%TO.P,R2,1*%
%TO.N,D+*%
X123460000Y-84887500D03*
%TO.P,R2,2*%
%TO.N,Net-(U1-D+)*%
X123460000Y-86712500D03*
%TD*%
D21*
%TO.P,USB1,1,GND*%
%TO.N,GND*%
X124120000Y-77690000D03*
%TO.P,USB1,2,ID*%
%TO.N,unconnected-(USB1-ID-Pad2)*%
X123320000Y-77690000D03*
%TO.P,USB1,3,D+*%
%TO.N,D+*%
X122520000Y-77690000D03*
%TO.P,USB1,4,D-*%
%TO.N,D-*%
X121720000Y-77690000D03*
%TO.P,USB1,5,VBUS*%
%TO.N,VCC*%
X120920000Y-77690000D03*
D22*
%TO.P,USB1,6,SHIELD*%
%TO.N,unconnected-(USB1-SHIELD-Pad6)*%
X126170000Y-73190000D03*
X118870000Y-73190000D03*
X126170000Y-77690000D03*
X118870000Y-77690000D03*
%TD*%
D23*
%TO.P,F1,1*%
%TO.N,VCC*%
X115960000Y-88810000D03*
%TO.P,F1,2*%
%TO.N,+5V*%
X115960000Y-91610000D03*
%TD*%
D24*
%TO.P,C7,1*%
%TO.N,+5V*%
X134375000Y-95550000D03*
%TO.P,C7,2*%
%TO.N,GND*%
X134375000Y-97450000D03*
%TD*%
D13*
%TO.P,D1,1,K*%
%TO.N,ROW0*%
X108960000Y-114100000D03*
%TO.P,D1,2,A*%
%TO.N,Net-(D1-A)*%
X108960000Y-112225000D03*
%TD*%
D20*
%TO.P,C2,1*%
%TO.N,GND*%
X139740000Y-80700000D03*
%TO.P,C2,2*%
%TO.N,Net-(U1-XTAL2)*%
X139740000Y-78800000D03*
%TD*%
D13*
%TO.P,D2,1,K*%
%TO.N,ROW0*%
X128430000Y-114102500D03*
%TO.P,D2,2,A*%
%TO.N,Net-(D2-A)*%
X128430000Y-112227500D03*
%TD*%
D24*
%TO.P,C1,1*%
%TO.N,GND*%
X148080000Y-78810000D03*
%TO.P,C1,2*%
%TO.N,Net-(U1-XTAL1)*%
X148080000Y-80710000D03*
%TD*%
D25*
%TO.P,Y1,1,1*%
%TO.N,Net-(U1-XTAL1)*%
X145180000Y-80630000D03*
%TO.P,Y1,2,2*%
%TO.N,GND*%
X142980000Y-80630000D03*
%TO.P,Y1,3,3*%
%TO.N,Net-(U1-XTAL2)*%
X142980000Y-78930000D03*
%TO.P,Y1,4,4*%
%TO.N,GND*%
X145180000Y-78930000D03*
%TD*%
D20*
%TO.P,C5,1*%
%TO.N,+5V*%
X155575000Y-88262500D03*
%TO.P,C5,2*%
%TO.N,GND*%
X155575000Y-86362500D03*
%TD*%
D26*
%TO.N,GND*%
X151550000Y-96225000D03*
X146775000Y-99050000D03*
%TO.N,+5V*%
X136075000Y-94560000D03*
X157100000Y-88325000D03*
X136075000Y-89500000D03*
X134275000Y-81550000D03*
X150275000Y-100450000D03*
%TO.N,ROW0*%
X153700000Y-95225000D03*
X153700000Y-90550000D03*
%TO.N,Net-(U1-~{RESET})*%
X149150000Y-104575000D03*
X130375000Y-83900000D03*
%TD*%
D27*
%TO.N,GND*%
X138400000Y-80700000D02*
X139740000Y-80700000D01*
D28*
X146710000Y-97060000D02*
X146710000Y-94810000D01*
D27*
X135125500Y-98200500D02*
X139946750Y-98200500D01*
X134375000Y-97450000D02*
X135125500Y-98200500D01*
X146775000Y-97125000D02*
X146710000Y-97060000D01*
D28*
X145550000Y-90270000D02*
X148460000Y-87360000D01*
D27*
X152400000Y-97075000D02*
X151550000Y-96225000D01*
X131110000Y-92160000D02*
X126350000Y-87400000D01*
X146990000Y-99265000D02*
X146775000Y-99050000D01*
X126350000Y-80475000D02*
X124120000Y-78245000D01*
X133825000Y-92160000D02*
X131110000Y-92160000D01*
X146990000Y-100380000D02*
X146990000Y-99265000D01*
X134375000Y-102175000D02*
X140375000Y-108175000D01*
X141910000Y-84861092D02*
X141910000Y-85660000D01*
X137875000Y-78275000D02*
X137875000Y-80175000D01*
X137810000Y-92160000D02*
X133825000Y-92160000D01*
X124120000Y-78245000D02*
X124120000Y-77690000D01*
D28*
X145550000Y-93650000D02*
X140300000Y-93650000D01*
X140310000Y-93660000D02*
X140310000Y-97060000D01*
X146710000Y-94810000D02*
X145550000Y-93650000D01*
D27*
X139088908Y-82040000D02*
X141910000Y-84861092D01*
D28*
X140300000Y-93650000D02*
X138810000Y-92160000D01*
D27*
X145180000Y-78930000D02*
X144832250Y-78930000D01*
X148080000Y-78810000D02*
X145300000Y-78810000D01*
X139946750Y-98200500D02*
X140310000Y-97837250D01*
X143925000Y-77675000D02*
X138475000Y-77675000D01*
D28*
X145550000Y-93650000D02*
X145550000Y-90270000D01*
D27*
X152400000Y-100012500D02*
X152400000Y-97075000D01*
X134375000Y-97450000D02*
X134375000Y-102175000D01*
D28*
X141910000Y-86630000D02*
X141910000Y-85660000D01*
X138810000Y-92160000D02*
X137810000Y-92160000D01*
D27*
X126350000Y-87400000D02*
X126350000Y-80475000D01*
X137875000Y-80175000D02*
X138400000Y-80700000D01*
D28*
X148460000Y-87360000D02*
X149210000Y-87360000D01*
D27*
X144832250Y-78930000D02*
X143132250Y-80630000D01*
D28*
X140300000Y-93650000D02*
X140310000Y-93660000D01*
D27*
X138475000Y-77675000D02*
X137875000Y-78275000D01*
X150207500Y-86362500D02*
X149210000Y-87360000D01*
X131910000Y-90245000D02*
X133825000Y-92160000D01*
X140310000Y-97837250D02*
X140310000Y-97060000D01*
X139740000Y-80700000D02*
X141910000Y-82870000D01*
X135830000Y-82040000D02*
X139088908Y-82040000D01*
X141910000Y-82870000D02*
X141910000Y-84861092D01*
X155575000Y-86362500D02*
X150207500Y-86362500D01*
X131910000Y-88390000D02*
X131910000Y-90245000D01*
X143132250Y-80630000D02*
X142980000Y-80630000D01*
X146775000Y-99050000D02*
X146775000Y-97125000D01*
X145180000Y-78930000D02*
X143925000Y-77675000D01*
D28*
X145550000Y-90270000D02*
X141910000Y-86630000D01*
D27*
X145300000Y-78810000D02*
X145180000Y-78930000D01*
D28*
%TO.N,Net-(U1-XTAL1)*%
X145180000Y-81245000D02*
X143510000Y-82915000D01*
X145180000Y-80630000D02*
X145180000Y-81245000D01*
X143510000Y-82915000D02*
X143510000Y-85660000D01*
X145260000Y-80710000D02*
X145180000Y-80630000D01*
X148080000Y-80710000D02*
X145260000Y-80710000D01*
%TO.N,Net-(U1-XTAL2)*%
X141955000Y-82185972D02*
X142710000Y-82940972D01*
X142980000Y-78930000D02*
X142280000Y-78930000D01*
X142710000Y-82940972D02*
X142710000Y-85660000D01*
X142980000Y-78930000D02*
X139870000Y-78930000D01*
X142280000Y-78930000D02*
X141955000Y-79255000D01*
X141955000Y-79255000D02*
X141955000Y-82185972D01*
X139870000Y-78930000D02*
X139740000Y-78800000D01*
%TO.N,Net-(U1-UCAP)*%
X133810000Y-88390000D02*
X136780000Y-91360000D01*
X136780000Y-91360000D02*
X137810000Y-91360000D01*
D27*
%TO.N,+5V*%
X136075000Y-95202250D02*
X136075000Y-94560000D01*
X136075000Y-89602250D02*
X136075000Y-89500000D01*
X141110000Y-84882750D02*
X141110000Y-85660000D01*
X149210000Y-88160000D02*
X151335000Y-88160000D01*
X134275000Y-81770000D02*
X133967500Y-82077500D01*
X137810000Y-90560000D02*
X137032750Y-90560000D01*
X155637500Y-88325000D02*
X155575000Y-88262500D01*
X157100000Y-88325000D02*
X155637500Y-88325000D01*
X116035000Y-91610000D02*
X118975000Y-94550000D01*
X148890000Y-100380000D02*
X148890000Y-98440000D01*
X133375000Y-94550000D02*
X134375000Y-95550000D01*
X132390000Y-82077500D02*
X133967500Y-82077500D01*
X139510000Y-97060000D02*
X137932750Y-97060000D01*
X137032750Y-90560000D02*
X136075000Y-89602250D01*
X133967500Y-82077500D02*
X135830000Y-83940000D01*
X135830000Y-83940000D02*
X140167250Y-83940000D01*
X140167250Y-83940000D02*
X141110000Y-84882750D01*
X134375000Y-95550000D02*
X135365000Y-94560000D01*
X155575000Y-88262500D02*
X151437500Y-88262500D01*
X148960000Y-100450000D02*
X148890000Y-100380000D01*
X115960000Y-91610000D02*
X116035000Y-91610000D01*
X148890000Y-98440000D02*
X147510000Y-97060000D01*
X118975000Y-94550000D02*
X133375000Y-94550000D01*
X136075000Y-94560000D02*
X137810000Y-94560000D01*
X137932750Y-97060000D02*
X136075000Y-95202250D01*
X134275000Y-81550000D02*
X134275000Y-81770000D01*
X150275000Y-100450000D02*
X148960000Y-100450000D01*
X151335000Y-88160000D02*
X151437500Y-88262500D01*
X135365000Y-94560000D02*
X136075000Y-94560000D01*
D28*
%TO.N,ROW0*%
X128430000Y-114102500D02*
X150097500Y-114102500D01*
X127021100Y-115511400D02*
X128430000Y-114102500D01*
X153700000Y-90550000D02*
X153690000Y-90560000D01*
X108960000Y-114100000D02*
X110371400Y-115511400D01*
X110371400Y-115511400D02*
X127021100Y-115511400D01*
X150097500Y-114102500D02*
X153700000Y-110500000D01*
X153700000Y-110500000D02*
X153700000Y-95225000D01*
X153690000Y-90560000D02*
X149210000Y-90560000D01*
%TO.N,Net-(D1-A)*%
X107475000Y-112225000D02*
X103320000Y-108070000D01*
X108960000Y-112225000D02*
X107475000Y-112225000D01*
%TO.N,Net-(D2-A)*%
X126335000Y-112227500D02*
X122750000Y-108642500D01*
X128430000Y-112227500D02*
X126335000Y-112227500D01*
%TO.N,ROW1*%
X171428600Y-115396400D02*
X168675000Y-118150000D01*
X174293900Y-115378900D02*
X190616100Y-115378900D01*
X153565000Y-92960000D02*
X149210000Y-92960000D01*
X168675000Y-118150000D02*
X155700000Y-118150000D01*
X155700000Y-95075000D02*
X153575000Y-92950000D01*
X190616100Y-115378900D02*
X192058750Y-113936250D01*
X171428600Y-115378900D02*
X171428600Y-115396400D01*
X172861250Y-113946250D02*
X171428600Y-115378900D01*
X153575000Y-92950000D02*
X153565000Y-92960000D01*
X172861250Y-113946250D02*
X174293900Y-115378900D01*
X155700000Y-118150000D02*
X155700000Y-95075000D01*
%TO.N,Net-(D3-A)*%
X170471250Y-112071250D02*
X166910000Y-108510000D01*
X172861250Y-112071250D02*
X170471250Y-112071250D01*
%TO.N,Net-(D4-A)*%
X192058750Y-112061250D02*
X189731250Y-112061250D01*
X189731250Y-112061250D02*
X186180000Y-108510000D01*
D27*
%TO.N,VCC*%
X120920000Y-77690000D02*
X120920000Y-78815000D01*
X115960000Y-83775000D02*
X115960000Y-88810000D01*
X120920000Y-78815000D02*
X115960000Y-83775000D01*
D28*
%TO.N,COL0*%
X161915000Y-92160000D02*
X149210000Y-92160000D01*
X161910000Y-99810000D02*
X161925000Y-99795000D01*
X161910000Y-109010000D02*
X161910000Y-99810000D01*
X161925000Y-99795000D02*
X161925000Y-92150000D01*
X161925000Y-92150000D02*
X161915000Y-92160000D01*
%TO.N,COL1*%
X181180000Y-109010000D02*
X163530000Y-91360000D01*
X163530000Y-91360000D02*
X149210000Y-91360000D01*
%TO.N,Net-(U1-~{RESET})*%
X133252500Y-84765000D02*
X138860000Y-84765000D01*
X132387500Y-83900000D02*
X132390000Y-83902500D01*
X132390000Y-83902500D02*
X133252500Y-84765000D01*
X140310000Y-84910000D02*
X140310000Y-85660000D01*
X139040000Y-84585000D02*
X139985000Y-84585000D01*
X149150000Y-104575000D02*
X149050000Y-104475000D01*
X149050000Y-104475000D02*
X146575000Y-104475000D01*
X130375000Y-83900000D02*
X132387500Y-83900000D01*
X139985000Y-84585000D02*
X140310000Y-84910000D01*
X138860000Y-84765000D02*
X139040000Y-84585000D01*
D29*
%TO.N,D+*%
X122520000Y-77690000D02*
X122520000Y-79405000D01*
X122520000Y-79405000D02*
X122325000Y-79600000D01*
X123460000Y-84560000D02*
X122325000Y-83425000D01*
X122325000Y-83425000D02*
X122325000Y-79600000D01*
X123460000Y-84887500D02*
X123460000Y-84560000D01*
D28*
%TO.N,Net-(U1-D+)*%
X122525000Y-88850000D02*
X122525000Y-90900000D01*
X123460000Y-87915000D02*
X122525000Y-88850000D01*
X122525000Y-90900000D02*
X124585000Y-92960000D01*
X124585000Y-92960000D02*
X137810000Y-92960000D01*
X123460000Y-86712500D02*
X123460000Y-87915000D01*
D29*
%TO.N,D-*%
X120650000Y-84675000D02*
X120650000Y-84917500D01*
X121925000Y-83400000D02*
X120650000Y-84675000D01*
X121925000Y-79600000D02*
X121925000Y-83400000D01*
X121720000Y-77690000D02*
X121720000Y-79395000D01*
X121720000Y-79395000D02*
X121925000Y-79600000D01*
D28*
%TO.N,Net-(U1-D-)*%
X120650000Y-87550000D02*
X120650000Y-86742500D01*
X122075000Y-88975000D02*
X120650000Y-87550000D01*
X124748604Y-93760000D02*
X122075000Y-91086396D01*
X137810000Y-93760000D02*
X124748604Y-93760000D01*
X122075000Y-91086396D02*
X122075000Y-88975000D01*
%TO.N,Net-(U1-~{HWB}{slash}PE2)*%
X151375000Y-100812500D02*
X151375000Y-97525000D01*
X151375000Y-97525000D02*
X149210000Y-95360000D01*
X152400000Y-101837500D02*
X151375000Y-100812500D01*
%TO.N,unconnected-(USB1-SHIELD-Pad6)*%
X118870000Y-77690000D02*
X118870000Y-73190000D01*
X126170000Y-73190000D02*
X126170000Y-77690000D01*
X126170000Y-73190000D02*
X118870000Y-73190000D01*
%TD*%
%TA.AperFunction,Conductor*%
%TO.N,GND*%
G36*
X149927206Y-74949757D02*
G01*
X149994205Y-74969574D01*
X150039856Y-75022469D01*
X150050956Y-75072791D01*
X150124018Y-84449036D01*
X150104857Y-84516227D01*
X150052411Y-84562392D01*
X149999036Y-84573998D01*
X144008514Y-84526359D01*
X143941633Y-84506142D01*
X143896300Y-84452976D01*
X143885500Y-84402363D01*
X143885500Y-83121898D01*
X143905185Y-83054859D01*
X143921814Y-83034222D01*
X145408889Y-81547146D01*
X145428746Y-81531022D01*
X145437836Y-81525084D01*
X145437838Y-81525082D01*
X145445396Y-81518125D01*
X145447029Y-81519899D01*
X145492014Y-81487525D01*
X145533157Y-81480500D01*
X145904676Y-81480500D01*
X145904677Y-81480499D01*
X145977740Y-81465966D01*
X146060601Y-81410601D01*
X146115966Y-81327740D01*
X146130500Y-81254674D01*
X146130500Y-81209500D01*
X146150185Y-81142461D01*
X146202989Y-81096706D01*
X146254500Y-81085500D01*
X147031533Y-81085500D01*
X147098572Y-81105185D01*
X147144327Y-81157989D01*
X147147715Y-81166166D01*
X147161203Y-81202330D01*
X147161206Y-81202335D01*
X147247452Y-81317544D01*
X147247455Y-81317547D01*
X147362664Y-81403793D01*
X147362671Y-81403797D01*
X147497517Y-81454091D01*
X147497516Y-81454091D01*
X147504444Y-81454835D01*
X147557127Y-81460500D01*
X148602872Y-81460499D01*
X148662483Y-81454091D01*
X148797331Y-81403796D01*
X148912546Y-81317546D01*
X148998796Y-81202331D01*
X149049091Y-81067483D01*
X149055500Y-81007873D01*
X149055499Y-80412128D01*
X149049091Y-80352517D01*
X149042253Y-80334184D01*
X148998797Y-80217671D01*
X148998793Y-80217664D01*
X148912547Y-80102455D01*
X148912544Y-80102452D01*
X148797335Y-80016206D01*
X148797329Y-80016203D01*
X148777529Y-80008818D01*
X148721596Y-79966946D01*
X148697179Y-79901482D01*
X148712031Y-79833209D01*
X148761437Y-79783804D01*
X148781860Y-79774930D01*
X148874117Y-79744359D01*
X148874124Y-79744356D01*
X149023345Y-79652315D01*
X149147315Y-79528345D01*
X149239356Y-79379124D01*
X149239358Y-79379119D01*
X149294505Y-79212697D01*
X149294506Y-79212690D01*
X149304999Y-79109986D01*
X149305000Y-79109973D01*
X149305000Y-79060000D01*
X146855001Y-79060000D01*
X146855001Y-79109986D01*
X146865494Y-79212697D01*
X146920641Y-79379119D01*
X146920643Y-79379124D01*
X147012684Y-79528345D01*
X147136654Y-79652315D01*
X147285875Y-79744356D01*
X147285880Y-79744358D01*
X147378140Y-79774930D01*
X147435585Y-79814702D01*
X147462408Y-79879218D01*
X147450093Y-79947994D01*
X147402550Y-79999194D01*
X147382471Y-80008817D01*
X147362674Y-80016201D01*
X147362664Y-80016206D01*
X147247455Y-80102452D01*
X147247452Y-80102455D01*
X147161206Y-80217664D01*
X147161203Y-80217669D01*
X147147715Y-80253834D01*
X147105843Y-80309767D01*
X147040379Y-80334184D01*
X147031533Y-80334500D01*
X146254500Y-80334500D01*
X146187461Y-80314815D01*
X146141706Y-80262011D01*
X146130500Y-80210500D01*
X146130500Y-80029125D01*
X146150185Y-79962086D01*
X146180189Y-79929858D01*
X146237189Y-79887187D01*
X146237190Y-79887186D01*
X146323352Y-79772088D01*
X146323354Y-79772086D01*
X146373596Y-79637379D01*
X146373598Y-79637372D01*
X146379999Y-79577844D01*
X146380000Y-79577827D01*
X146380000Y-79180000D01*
X145054000Y-79180000D01*
X144986961Y-79160315D01*
X144941206Y-79107511D01*
X144930000Y-79056000D01*
X144930000Y-77830000D01*
X145430000Y-77830000D01*
X145430000Y-78680000D01*
X146380000Y-78680000D01*
X146380000Y-78560000D01*
X146855000Y-78560000D01*
X147830000Y-78560000D01*
X147830000Y-77810000D01*
X148330000Y-77810000D01*
X148330000Y-78560000D01*
X149304999Y-78560000D01*
X149304999Y-78510028D01*
X149304998Y-78510013D01*
X149294505Y-78407302D01*
X149239358Y-78240880D01*
X149239356Y-78240875D01*
X149147315Y-78091654D01*
X149023345Y-77967684D01*
X148874124Y-77875643D01*
X148874119Y-77875641D01*
X148707697Y-77820494D01*
X148707690Y-77820493D01*
X148604986Y-77810000D01*
X148330000Y-77810000D01*
X147830000Y-77810000D01*
X147555029Y-77810000D01*
X147555012Y-77810001D01*
X147452302Y-77820494D01*
X147285880Y-77875641D01*
X147285875Y-77875643D01*
X147136654Y-77967684D01*
X147012684Y-78091654D01*
X146920643Y-78240875D01*
X146920641Y-78240880D01*
X146865494Y-78407302D01*
X146865493Y-78407309D01*
X146855000Y-78510013D01*
X146855000Y-78560000D01*
X146380000Y-78560000D01*
X146380000Y-78282172D01*
X146379999Y-78282155D01*
X146373598Y-78222627D01*
X146373596Y-78222620D01*
X146323354Y-78087913D01*
X146323350Y-78087906D01*
X146237190Y-77972812D01*
X146237187Y-77972809D01*
X146122093Y-77886649D01*
X146122086Y-77886645D01*
X145987379Y-77836403D01*
X145987372Y-77836401D01*
X145927844Y-77830000D01*
X145430000Y-77830000D01*
X144930000Y-77830000D01*
X144432155Y-77830000D01*
X144372627Y-77836401D01*
X144372620Y-77836403D01*
X144237913Y-77886645D01*
X144237906Y-77886649D01*
X144122812Y-77972809D01*
X144122809Y-77972812D01*
X144036649Y-78087906D01*
X144032396Y-78095696D01*
X144030357Y-78094582D01*
X143996055Y-78140398D01*
X143930588Y-78164810D01*
X143862317Y-78149953D01*
X143852862Y-78144228D01*
X143777739Y-78094033D01*
X143777735Y-78094032D01*
X143704677Y-78079500D01*
X143704674Y-78079500D01*
X142255326Y-78079500D01*
X142255323Y-78079500D01*
X142182264Y-78094032D01*
X142182260Y-78094033D01*
X142099399Y-78149399D01*
X142044033Y-78232260D01*
X142044032Y-78232264D01*
X142029500Y-78305321D01*
X142029500Y-78430500D01*
X142009815Y-78497539D01*
X141957011Y-78543294D01*
X141905500Y-78554500D01*
X140832514Y-78554500D01*
X140765475Y-78534815D01*
X140719720Y-78482011D01*
X140710951Y-78450050D01*
X140710876Y-78450068D01*
X140710375Y-78447951D01*
X140709224Y-78443753D01*
X140709091Y-78442516D01*
X140658797Y-78307671D01*
X140658793Y-78307664D01*
X140572547Y-78192455D01*
X140572544Y-78192452D01*
X140457335Y-78106206D01*
X140457328Y-78106202D01*
X140322482Y-78055908D01*
X140322483Y-78055908D01*
X140262883Y-78049501D01*
X140262881Y-78049500D01*
X140262873Y-78049500D01*
X140262864Y-78049500D01*
X139217129Y-78049500D01*
X139217123Y-78049501D01*
X139157516Y-78055908D01*
X139022671Y-78106202D01*
X139022664Y-78106206D01*
X138907455Y-78192452D01*
X138907452Y-78192455D01*
X138821206Y-78307664D01*
X138821202Y-78307671D01*
X138770910Y-78442513D01*
X138770909Y-78442517D01*
X138764500Y-78502127D01*
X138764500Y-78502134D01*
X138764500Y-78502135D01*
X138764500Y-79097870D01*
X138764501Y-79097876D01*
X138770908Y-79157483D01*
X138821202Y-79292328D01*
X138821206Y-79292335D01*
X138907452Y-79407544D01*
X138907455Y-79407547D01*
X139022664Y-79493793D01*
X139022673Y-79493798D01*
X139042468Y-79501181D01*
X139098402Y-79543051D01*
X139122820Y-79608515D01*
X139107969Y-79676788D01*
X139058565Y-79726194D01*
X139038141Y-79735069D01*
X138945878Y-79765642D01*
X138945875Y-79765643D01*
X138796654Y-79857684D01*
X138672684Y-79981654D01*
X138580643Y-80130875D01*
X138580641Y-80130880D01*
X138525494Y-80297302D01*
X138525493Y-80297309D01*
X138515000Y-80400013D01*
X138515000Y-80450000D01*
X140964999Y-80450000D01*
X140964999Y-80400028D01*
X140964998Y-80400013D01*
X140954505Y-80297302D01*
X140899358Y-80130880D01*
X140899356Y-80130875D01*
X140807315Y-79981654D01*
X140683345Y-79857684D01*
X140534124Y-79765643D01*
X140534119Y-79765641D01*
X140441859Y-79735069D01*
X140384414Y-79695296D01*
X140357591Y-79630780D01*
X140369906Y-79562004D01*
X140417449Y-79510804D01*
X140437533Y-79501180D01*
X140457326Y-79493798D01*
X140457331Y-79493796D01*
X140572546Y-79407546D01*
X140594673Y-79377989D01*
X140611740Y-79355190D01*
X140667674Y-79313318D01*
X140711007Y-79305500D01*
X141455500Y-79305500D01*
X141522539Y-79325185D01*
X141568294Y-79377989D01*
X141579500Y-79429500D01*
X141579500Y-82134168D01*
X141576862Y-82159606D01*
X141574633Y-82170240D01*
X141574633Y-82170241D01*
X141574633Y-82170243D01*
X141579023Y-82205463D01*
X141579500Y-82213139D01*
X141579500Y-82217088D01*
X141583342Y-82240113D01*
X141590134Y-82294599D01*
X141592373Y-82302119D01*
X141594934Y-82309580D01*
X141594935Y-82309582D01*
X141621055Y-82357849D01*
X141645174Y-82407183D01*
X141649742Y-82413581D01*
X141654582Y-82419799D01*
X141694971Y-82456981D01*
X142298181Y-83060190D01*
X142331666Y-83121513D01*
X142334500Y-83147871D01*
X142334500Y-84286000D01*
X142314815Y-84353039D01*
X142262011Y-84398794D01*
X142210500Y-84410000D01*
X142160000Y-84410000D01*
X142160000Y-84511660D01*
X141660000Y-84507683D01*
X141660000Y-84410000D01*
X141587155Y-84410000D01*
X141527627Y-84416401D01*
X141527619Y-84416403D01*
X141412698Y-84459266D01*
X141343006Y-84464250D01*
X141281684Y-84430765D01*
X141117846Y-84266927D01*
X140499046Y-83648128D01*
X140494428Y-83642960D01*
X140470594Y-83613073D01*
X140422483Y-83580271D01*
X140375643Y-83545702D01*
X140375641Y-83545701D01*
X140368253Y-83541796D01*
X140360752Y-83538184D01*
X140305108Y-83521020D01*
X140250168Y-83501795D01*
X140241953Y-83500241D01*
X140233721Y-83499000D01*
X140233720Y-83499000D01*
X140233718Y-83499000D01*
X140175495Y-83499000D01*
X140117317Y-83496822D01*
X140108084Y-83497863D01*
X140107987Y-83497008D01*
X140092867Y-83499000D01*
X137656738Y-83499000D01*
X137589699Y-83479315D01*
X137543944Y-83426511D01*
X137532753Y-83376947D01*
X137522342Y-82714107D01*
X137494633Y-80950000D01*
X138515001Y-80950000D01*
X138515001Y-80999986D01*
X138525494Y-81102697D01*
X138580641Y-81269119D01*
X138580643Y-81269124D01*
X138672684Y-81418345D01*
X138796654Y-81542315D01*
X138945875Y-81634356D01*
X138945880Y-81634358D01*
X139112302Y-81689505D01*
X139112309Y-81689506D01*
X139215019Y-81699999D01*
X139489999Y-81699999D01*
X139490000Y-81699998D01*
X139490000Y-80950000D01*
X139990000Y-80950000D01*
X139990000Y-81699999D01*
X140264972Y-81699999D01*
X140264986Y-81699998D01*
X140367697Y-81689505D01*
X140534119Y-81634358D01*
X140534124Y-81634356D01*
X140683345Y-81542315D01*
X140807315Y-81418345D01*
X140899356Y-81269124D01*
X140899358Y-81269119D01*
X140954505Y-81102697D01*
X140954506Y-81102690D01*
X140964999Y-80999986D01*
X140965000Y-80999973D01*
X140965000Y-80950000D01*
X139990000Y-80950000D01*
X139490000Y-80950000D01*
X138515001Y-80950000D01*
X137494633Y-80950000D01*
X137401982Y-75051195D01*
X137420612Y-74983856D01*
X137472690Y-74937278D01*
X137526210Y-74925249D01*
X149927206Y-74949757D01*
G37*
%TD.AperFunction*%
%TA.AperFunction,Conductor*%
G36*
X143173039Y-80399685D02*
G01*
X143218794Y-80452489D01*
X143230000Y-80504000D01*
X143230000Y-81730000D01*
X143727828Y-81730000D01*
X143727844Y-81729999D01*
X143787372Y-81723598D01*
X143787376Y-81723597D01*
X143864103Y-81694980D01*
X143933795Y-81689996D01*
X143995118Y-81723481D01*
X144028603Y-81784804D01*
X144023619Y-81854495D01*
X143995118Y-81898843D01*
X143281108Y-82612852D01*
X143261254Y-82628976D01*
X143252165Y-82634914D01*
X143252164Y-82634915D01*
X143230363Y-82662923D01*
X143225286Y-82668674D01*
X143222484Y-82671477D01*
X143222475Y-82671488D01*
X143213980Y-82683386D01*
X143208905Y-82690495D01*
X143203299Y-82697696D01*
X143201032Y-82700610D01*
X143144319Y-82741420D01*
X143074546Y-82745091D01*
X143018765Y-82713254D01*
X143017981Y-82714107D01*
X143014262Y-82710683D01*
X143013865Y-82710457D01*
X143013270Y-82709770D01*
X142971678Y-82671482D01*
X142970029Y-82669964D01*
X142707248Y-82407183D01*
X142366819Y-82066753D01*
X142333334Y-82005430D01*
X142330500Y-81979072D01*
X142330500Y-81854000D01*
X142350185Y-81786961D01*
X142402989Y-81741206D01*
X142454500Y-81730000D01*
X142730000Y-81730000D01*
X142730000Y-80504000D01*
X142749685Y-80436961D01*
X142802489Y-80391206D01*
X142854000Y-80380000D01*
X143106000Y-80380000D01*
X143173039Y-80399685D01*
G37*
%TD.AperFunction*%
%TD*%
%TA.AperFunction,Conductor*%
%TO.N,GND*%
G36*
X124778735Y-73835185D02*
G01*
X124824490Y-73887989D01*
X124833003Y-73920254D01*
X124833998Y-73920079D01*
X124834938Y-73925413D01*
X124896094Y-74153655D01*
X124896096Y-74153659D01*
X124896097Y-74153663D01*
X124946031Y-74260746D01*
X124995964Y-74367828D01*
X124995965Y-74367830D01*
X125131505Y-74561402D01*
X125220943Y-74650839D01*
X125298599Y-74728495D01*
X125491624Y-74863653D01*
X125535248Y-74918228D01*
X125544500Y-74965226D01*
X125544500Y-75914773D01*
X125524815Y-75981812D01*
X125491623Y-76016348D01*
X125298597Y-76151505D01*
X125131508Y-76318594D01*
X125058189Y-76423305D01*
X125003612Y-76466929D01*
X124934113Y-76474122D01*
X124871759Y-76442600D01*
X124840432Y-76395513D01*
X124813355Y-76322915D01*
X124813350Y-76322906D01*
X124727190Y-76207812D01*
X124727187Y-76207809D01*
X124612093Y-76121649D01*
X124612086Y-76121645D01*
X124477379Y-76071403D01*
X124477372Y-76071401D01*
X124417844Y-76065000D01*
X124370000Y-76065000D01*
X124370000Y-77816000D01*
X124350315Y-77883039D01*
X124297511Y-77928794D01*
X124246000Y-77940000D01*
X124194500Y-77940000D01*
X124127461Y-77920315D01*
X124081706Y-77867511D01*
X124070500Y-77816000D01*
X124070499Y-76517129D01*
X124070498Y-76517123D01*
X124064091Y-76457516D01*
X124013797Y-76322671D01*
X124013793Y-76322664D01*
X123927547Y-76207455D01*
X123927546Y-76207454D01*
X123919685Y-76201569D01*
X123877816Y-76145633D01*
X123870000Y-76102305D01*
X123870000Y-76065000D01*
X123822155Y-76065000D01*
X123762624Y-76071401D01*
X123755073Y-76073186D01*
X123754684Y-76071542D01*
X123694348Y-76075853D01*
X123677614Y-76070939D01*
X123677491Y-76070910D01*
X123677483Y-76070909D01*
X123617873Y-76064500D01*
X123617863Y-76064500D01*
X123022129Y-76064500D01*
X123022123Y-76064501D01*
X122962520Y-76070908D01*
X122954974Y-76072692D01*
X122954628Y-76071230D01*
X122893622Y-76075584D01*
X122878600Y-76071172D01*
X122877482Y-76070908D01*
X122817882Y-76064501D01*
X122817873Y-76064500D01*
X122817863Y-76064500D01*
X122222129Y-76064500D01*
X122222123Y-76064501D01*
X122162520Y-76070908D01*
X122154974Y-76072692D01*
X122154628Y-76071230D01*
X122093622Y-76075584D01*
X122078600Y-76071172D01*
X122077482Y-76070908D01*
X122017882Y-76064501D01*
X122017873Y-76064500D01*
X122017863Y-76064500D01*
X121422129Y-76064500D01*
X121422123Y-76064501D01*
X121362520Y-76070908D01*
X121354974Y-76072692D01*
X121354628Y-76071230D01*
X121293622Y-76075584D01*
X121278600Y-76071172D01*
X121277482Y-76070908D01*
X121217882Y-76064501D01*
X121217873Y-76064500D01*
X121217863Y-76064500D01*
X120622129Y-76064500D01*
X120622123Y-76064501D01*
X120562516Y-76070908D01*
X120427671Y-76121202D01*
X120427664Y-76121206D01*
X120312455Y-76207452D01*
X120312452Y-76207455D01*
X120226206Y-76322664D01*
X120226203Y-76322669D01*
X120199219Y-76395018D01*
X120157347Y-76450951D01*
X120091883Y-76475368D01*
X120023610Y-76460516D01*
X119981462Y-76422807D01*
X119908494Y-76318597D01*
X119741402Y-76151506D01*
X119741401Y-76151505D01*
X119548376Y-76016347D01*
X119504751Y-75961770D01*
X119495500Y-75914772D01*
X119495500Y-74965225D01*
X119515185Y-74898186D01*
X119548373Y-74863653D01*
X119741401Y-74728495D01*
X119908495Y-74561401D01*
X120044035Y-74367829D01*
X120143903Y-74153663D01*
X120205063Y-73925408D01*
X120205064Y-73925395D01*
X120206002Y-73920079D01*
X120208000Y-73920431D01*
X120230246Y-73863602D01*
X120286846Y-73822636D01*
X120328304Y-73815500D01*
X124711696Y-73815500D01*
X124778735Y-73835185D01*
G37*
%TD.AperFunction*%
%TD*%
%TA.AperFunction,Conductor*%
%TO.N,GND*%
G36*
X142152181Y-86848074D02*
G01*
X142160000Y-86891409D01*
X142160000Y-86910000D01*
X142232828Y-86910000D01*
X142232839Y-86909999D01*
X142294395Y-86903380D01*
X142320909Y-86903380D01*
X142327514Y-86904090D01*
X142327517Y-86904091D01*
X142387127Y-86910500D01*
X143032872Y-86910499D01*
X143092483Y-86904091D01*
X143092486Y-86904089D01*
X143096744Y-86903632D01*
X143123254Y-86903632D01*
X143127514Y-86904089D01*
X143127517Y-86904091D01*
X143187127Y-86910500D01*
X143832872Y-86910499D01*
X143892483Y-86904091D01*
X143892486Y-86904089D01*
X143896744Y-86903632D01*
X143923254Y-86903632D01*
X143927514Y-86904089D01*
X143927517Y-86904091D01*
X143987127Y-86910500D01*
X144632872Y-86910499D01*
X144692483Y-86904091D01*
X144692486Y-86904089D01*
X144696744Y-86903632D01*
X144723254Y-86903632D01*
X144727514Y-86904089D01*
X144727517Y-86904091D01*
X144787127Y-86910500D01*
X145432872Y-86910499D01*
X145492483Y-86904091D01*
X145492486Y-86904089D01*
X145496744Y-86903632D01*
X145523254Y-86903632D01*
X145527514Y-86904089D01*
X145527517Y-86904091D01*
X145587127Y-86910500D01*
X146232872Y-86910499D01*
X146292483Y-86904091D01*
X146292486Y-86904089D01*
X146296744Y-86903632D01*
X146323254Y-86903632D01*
X146327514Y-86904089D01*
X146327517Y-86904091D01*
X146387127Y-86910500D01*
X147032872Y-86910499D01*
X147092483Y-86904091D01*
X147092486Y-86904089D01*
X147096744Y-86903632D01*
X147123254Y-86903632D01*
X147127514Y-86904089D01*
X147127517Y-86904091D01*
X147187127Y-86910500D01*
X147832872Y-86910499D01*
X147836000Y-86910499D01*
X147903039Y-86930183D01*
X147948794Y-86982987D01*
X147960000Y-87034499D01*
X147960000Y-87110000D01*
X148053915Y-87110000D01*
X148060281Y-87573468D01*
X148021924Y-87602182D01*
X147978591Y-87610000D01*
X147960000Y-87610000D01*
X147960000Y-87682844D01*
X147966619Y-87744398D01*
X147966620Y-87770909D01*
X147965909Y-87777514D01*
X147965909Y-87777517D01*
X147959500Y-87837127D01*
X147959500Y-87837134D01*
X147959500Y-87837135D01*
X147959500Y-88482870D01*
X147959501Y-88482879D01*
X147966367Y-88546751D01*
X147966367Y-88573257D01*
X147965909Y-88577516D01*
X147965909Y-88577517D01*
X147959500Y-88637127D01*
X147959500Y-88637129D01*
X147959500Y-88637133D01*
X147959500Y-89282870D01*
X147959501Y-89282879D01*
X147966367Y-89346751D01*
X147966367Y-89373257D01*
X147965909Y-89377516D01*
X147965909Y-89377517D01*
X147959500Y-89437127D01*
X147959500Y-89437129D01*
X147959500Y-89437133D01*
X147959500Y-90082870D01*
X147959501Y-90082879D01*
X147966367Y-90146751D01*
X147966367Y-90173257D01*
X147965909Y-90177516D01*
X147965909Y-90177517D01*
X147959500Y-90237127D01*
X147959500Y-90237129D01*
X147959500Y-90237133D01*
X147959500Y-90882870D01*
X147959501Y-90882879D01*
X147966367Y-90946751D01*
X147966367Y-90973257D01*
X147965909Y-90977516D01*
X147965909Y-90977517D01*
X147959500Y-91037127D01*
X147959500Y-91037129D01*
X147959500Y-91037133D01*
X147959500Y-91682870D01*
X147959501Y-91682879D01*
X147966367Y-91746751D01*
X147966367Y-91773257D01*
X147965909Y-91777516D01*
X147965909Y-91777517D01*
X147959500Y-91837127D01*
X147959500Y-91837132D01*
X147959500Y-91837133D01*
X147959500Y-92482870D01*
X147959501Y-92482879D01*
X147966367Y-92546751D01*
X147966367Y-92573257D01*
X147965909Y-92577516D01*
X147965909Y-92577517D01*
X147959500Y-92637127D01*
X147959500Y-92637129D01*
X147959500Y-92637133D01*
X147959500Y-93282870D01*
X147959501Y-93282879D01*
X147966367Y-93346751D01*
X147966367Y-93373257D01*
X147965909Y-93377516D01*
X147965909Y-93377517D01*
X147959500Y-93437127D01*
X147959500Y-93437129D01*
X147959500Y-93437133D01*
X147959500Y-94082870D01*
X147959501Y-94082879D01*
X147966367Y-94146751D01*
X147966367Y-94173257D01*
X147965909Y-94177516D01*
X147965909Y-94177517D01*
X147959500Y-94237127D01*
X147959500Y-94237129D01*
X147959500Y-94237133D01*
X147959500Y-94882870D01*
X147959501Y-94882879D01*
X147966367Y-94946751D01*
X147966367Y-94973257D01*
X147965909Y-94977516D01*
X147965909Y-94977517D01*
X147959500Y-95037127D01*
X147959500Y-95037129D01*
X147959500Y-95037133D01*
X147959500Y-95685500D01*
X147939815Y-95752539D01*
X147887011Y-95798294D01*
X147835500Y-95809500D01*
X147187129Y-95809500D01*
X147187125Y-95809501D01*
X147139160Y-95814657D01*
X147127517Y-95815909D01*
X147127516Y-95815909D01*
X147120904Y-95816620D01*
X147094393Y-95816619D01*
X147032842Y-95810000D01*
X146960000Y-95810000D01*
X146960000Y-95828590D01*
X146940315Y-95895629D01*
X146916156Y-95921579D01*
X146504150Y-95920459D01*
X146467817Y-95871921D01*
X146460000Y-95828590D01*
X146460000Y-95810000D01*
X146387166Y-95810000D01*
X146325595Y-95816619D01*
X146299088Y-95816619D01*
X146289818Y-95815622D01*
X146232873Y-95809500D01*
X146232865Y-95809500D01*
X145587129Y-95809500D01*
X145587120Y-95809501D01*
X145523248Y-95816367D01*
X145496742Y-95816367D01*
X145492483Y-95815909D01*
X145432873Y-95809500D01*
X145432864Y-95809500D01*
X144787129Y-95809500D01*
X144787120Y-95809501D01*
X144723248Y-95816367D01*
X144696742Y-95816367D01*
X144692483Y-95815909D01*
X144632873Y-95809500D01*
X144632864Y-95809500D01*
X143987129Y-95809500D01*
X143987120Y-95809501D01*
X143923248Y-95816367D01*
X143896742Y-95816367D01*
X143892483Y-95815909D01*
X143832873Y-95809500D01*
X143832864Y-95809500D01*
X143187129Y-95809500D01*
X143187120Y-95809501D01*
X143123248Y-95816367D01*
X143096742Y-95816367D01*
X143092483Y-95815909D01*
X143032873Y-95809500D01*
X143032864Y-95809500D01*
X142387129Y-95809500D01*
X142387120Y-95809501D01*
X142323248Y-95816367D01*
X142296742Y-95816367D01*
X142292483Y-95815909D01*
X142232873Y-95809500D01*
X142232864Y-95809500D01*
X141587129Y-95809500D01*
X141587120Y-95809501D01*
X141523248Y-95816367D01*
X141496742Y-95816367D01*
X141492483Y-95815909D01*
X141432873Y-95809500D01*
X141432864Y-95809500D01*
X140787129Y-95809500D01*
X140787125Y-95809501D01*
X140739160Y-95814657D01*
X140727517Y-95815909D01*
X140727516Y-95815909D01*
X140720904Y-95816620D01*
X140694393Y-95816619D01*
X140632842Y-95810000D01*
X140560000Y-95810000D01*
X140560000Y-95828590D01*
X140540315Y-95895629D01*
X140532306Y-95904231D01*
X140091105Y-95903032D01*
X140067817Y-95871921D01*
X140060000Y-95828590D01*
X140060000Y-95810000D01*
X139987166Y-95810000D01*
X139925595Y-95816619D01*
X139899088Y-95816619D01*
X139887279Y-95815349D01*
X139832873Y-95809500D01*
X139832867Y-95809500D01*
X139184499Y-95809500D01*
X139117460Y-95789815D01*
X139071705Y-95737011D01*
X139060499Y-95685500D01*
X139060499Y-95682882D01*
X139060500Y-95682873D01*
X139060499Y-95037128D01*
X139054091Y-94977517D01*
X139054089Y-94977513D01*
X139053632Y-94973255D01*
X139053632Y-94946745D01*
X139054089Y-94942486D01*
X139054091Y-94942483D01*
X139060500Y-94882873D01*
X139060499Y-94237128D01*
X139054091Y-94177517D01*
X139054089Y-94177513D01*
X139053632Y-94173255D01*
X139053632Y-94146745D01*
X139054089Y-94142486D01*
X139054091Y-94142483D01*
X139060500Y-94082873D01*
X139060499Y-93437128D01*
X139054091Y-93377517D01*
X139054089Y-93377513D01*
X139053632Y-93373255D01*
X139053632Y-93346745D01*
X139054089Y-93342486D01*
X139054091Y-93342483D01*
X139060500Y-93282873D01*
X139060499Y-92637128D01*
X139054091Y-92577517D01*
X139054090Y-92577516D01*
X139053380Y-92570904D01*
X139053381Y-92544393D01*
X139059999Y-92482842D01*
X139060000Y-92482827D01*
X139060000Y-92410000D01*
X139041409Y-92410000D01*
X138984660Y-92393336D01*
X138985945Y-91926898D01*
X138998076Y-91917818D01*
X139041409Y-91910000D01*
X139060000Y-91910000D01*
X139060000Y-91837172D01*
X139059999Y-91837160D01*
X139053380Y-91775604D01*
X139053380Y-91749090D01*
X139054090Y-91742485D01*
X139054091Y-91742483D01*
X139060500Y-91682873D01*
X139060499Y-91037128D01*
X139054091Y-90977517D01*
X139054089Y-90977513D01*
X139053632Y-90973255D01*
X139053632Y-90946745D01*
X139054089Y-90942486D01*
X139054091Y-90942483D01*
X139060500Y-90882873D01*
X139060499Y-90237128D01*
X139054091Y-90177517D01*
X139054089Y-90177513D01*
X139053632Y-90173255D01*
X139053632Y-90146745D01*
X139054089Y-90142486D01*
X139054091Y-90142483D01*
X139060500Y-90082873D01*
X139060499Y-89437128D01*
X139054091Y-89377517D01*
X139054089Y-89377513D01*
X139053632Y-89373255D01*
X139053632Y-89346745D01*
X139054089Y-89342486D01*
X139054091Y-89342483D01*
X139060500Y-89282873D01*
X139060499Y-88637128D01*
X139054091Y-88577517D01*
X139054089Y-88577513D01*
X139053632Y-88573255D01*
X139053632Y-88546745D01*
X139054089Y-88542486D01*
X139054091Y-88542483D01*
X139060500Y-88482873D01*
X139060499Y-87837128D01*
X139054091Y-87777517D01*
X139054089Y-87777513D01*
X139053632Y-87773255D01*
X139053632Y-87746745D01*
X139054089Y-87742486D01*
X139054091Y-87742483D01*
X139060500Y-87682873D01*
X139060499Y-87037128D01*
X139060499Y-87037127D01*
X139060499Y-87034499D01*
X139080183Y-86967460D01*
X139132987Y-86921705D01*
X139184499Y-86910499D01*
X139187118Y-86910499D01*
X139187127Y-86910500D01*
X139832872Y-86910499D01*
X139892483Y-86904091D01*
X139892486Y-86904089D01*
X139896744Y-86903632D01*
X139923254Y-86903632D01*
X139927514Y-86904089D01*
X139927517Y-86904091D01*
X139987127Y-86910500D01*
X140632872Y-86910499D01*
X140692483Y-86904091D01*
X140692486Y-86904089D01*
X140696744Y-86903632D01*
X140723254Y-86903632D01*
X140727514Y-86904089D01*
X140727517Y-86904091D01*
X140787127Y-86910500D01*
X141432872Y-86910499D01*
X141492483Y-86904091D01*
X141492483Y-86904090D01*
X141499096Y-86903380D01*
X141525607Y-86903381D01*
X141587157Y-86909999D01*
X141587172Y-86910000D01*
X141660000Y-86910000D01*
X141660000Y-86891409D01*
X141679500Y-86825000D01*
X142134908Y-86825000D01*
X142152181Y-86848074D01*
G37*
%TD.AperFunction*%
%TD*%
M02*
