M48
; DRILL file {KiCad 7.0.8} date 2023 November 14, Tuesday 13:06:23
; FORMAT={-:-/ absolute / inch / decimal}
; #@! TF.CreationDate,2023-11-14T13:06:23-05:00
; #@! TF.GenerationSoftware,Kicad,Pcbnew,7.0.8
; #@! TF.FileFunction,Plated,1,2,PTH
FMAT,2
INCH
; #@! TA.AperFunction,Plated,PTH,ViaDrill
T1C0.0157
; #@! TA.AperFunction,Plated,PTH,ComponentDrill
T2C0.0276
; #@! TA.AperFunction,Plated,PTH,ComponentDrill
T3C0.0579
%
G90
G05
T1
X5.1329Y-3.3031
X5.2864Y-3.2106
X5.3573Y-3.5236
X5.3573Y-3.7228
X5.7785Y-3.8996
X5.872Y-4.1171
X5.9163Y-3.9547
X5.9665Y-3.7884
X6.0512Y-3.565
X6.0512Y-3.749
X6.185Y-3.4774
T3
X3.8177Y-4.3547
X3.8693Y-4.2972
X4.0661Y-4.2776
X4.0677Y-4.2547
X4.5843Y-4.3544
X4.6358Y-4.2969
X4.8327Y-4.2773
X4.8343Y-4.2544
X6.3228Y-4.3492
X6.3744Y-4.2917
X6.5713Y-4.272
X6.5728Y-4.2492
X7.0815Y-4.3492
X7.1331Y-4.2917
X7.3299Y-4.272
X7.3315Y-4.2492
T2
G00X4.6799Y-2.8579
M15
G01X4.6799Y-2.9051
M16
G05
G00X4.6799Y-3.035
M15
G01X4.6799Y-3.0823
M16
G05
G00X4.9673Y-2.8579
M15
G01X4.9673Y-2.9051
M16
G05
G00X4.9673Y-3.035
M15
G01X4.9673Y-3.0823
M16
G05
T0
M30
