%TF.GenerationSoftware,KiCad,Pcbnew,7.0.8*%
%TF.CreationDate,2023-11-14T13:05:45-05:00*%
%TF.ProjectId,KiCad Files,4b694361-6420-4466-996c-65732e6b6963,rev?*%
%TF.SameCoordinates,Original*%
%TF.FileFunction,Copper,L1,Top*%
%TF.FilePolarity,Positive*%
%FSLAX46Y46*%
G04 Gerber Fmt 4.6, Leading zero omitted, Abs format (unit mm)*
G04 Created by KiCad (PCBNEW 7.0.8) date 2023-11-14 13:05:45*
%MOMM*%
%LPD*%
G01*
G04 APERTURE LIST*
G04 Aperture macros list*
%AMHorizOval*
0 Thick line with rounded ends*
0 $1 width*
0 $2 $3 position (X,Y) of the first rounded end (center of the circle)*
0 $4 $5 position (X,Y) of the second rounded end (center of the circle)*
0 Add line between two ends*
20,1,$1,$2,$3,$4,$5,0*
0 Add two circle primitives to create the rounded ends*
1,1,$1,$2,$3*
1,1,$1,$4,$5*%
G04 Aperture macros list end*
%TA.AperFunction,ComponentPad*%
%ADD10HorizOval,2.250000X0.655001X0.730000X-0.655001X-0.730000X0*%
%TD*%
%TA.AperFunction,ComponentPad*%
%ADD11C,2.250000*%
%TD*%
%TA.AperFunction,ComponentPad*%
%ADD12HorizOval,2.250000X0.020000X0.290000X-0.020000X-0.290000X0*%
%TD*%
%TA.AperFunction,ComponentPad*%
%ADD13O,1.700000X2.700000*%
%TD*%
%TA.AperFunction,ViaPad*%
%ADD14C,0.800000*%
%TD*%
%TA.AperFunction,Conductor*%
%ADD15C,0.381000*%
%TD*%
%TA.AperFunction,Conductor*%
%ADD16C,0.250000*%
%TD*%
G04 APERTURE END LIST*
D10*
%TO.P,MX4,1,COL*%
%TO.N,COL1*%
X180525001Y-109740000D03*
D11*
X181180000Y-109010000D03*
D12*
%TO.P,MX4,2,ROW*%
%TO.N,Net-(D4-A)*%
X186200000Y-108220000D03*
D11*
X186220000Y-107930000D03*
%TD*%
D10*
%TO.P,MX2,1,COL*%
%TO.N,COL1*%
X117095001Y-109872500D03*
D11*
X117750000Y-109142500D03*
D12*
%TO.P,MX2,2,ROW*%
%TO.N,Net-(D2-A)*%
X122770000Y-108352500D03*
D11*
X122790000Y-108062500D03*
%TD*%
D10*
%TO.P,MX3,1,COL*%
%TO.N,COL0*%
X161255001Y-109740000D03*
D11*
X161910000Y-109010000D03*
D12*
%TO.P,MX3,2,ROW*%
%TO.N,Net-(D3-A)*%
X166930000Y-108220000D03*
D11*
X166950000Y-107930000D03*
%TD*%
D10*
%TO.P,MX1,1,COL*%
%TO.N,COL0*%
X97625001Y-109880000D03*
D11*
X98280000Y-109150000D03*
D12*
%TO.P,MX1,2,ROW*%
%TO.N,Net-(D1-A)*%
X103300000Y-108360000D03*
D11*
X103320000Y-108070000D03*
%TD*%
D13*
%TO.P,USB1,6,SHIELD*%
%TO.N,unconnected-(USB1-SHIELD-Pad6)*%
X126170000Y-73190000D03*
X118870000Y-73190000D03*
X126170000Y-77690000D03*
X118870000Y-77690000D03*
%TD*%
D14*
%TO.N,GND*%
X151550000Y-96225000D03*
X146775000Y-99050000D03*
%TO.N,+5V*%
X136075000Y-94560000D03*
X157100000Y-88325000D03*
X136075000Y-89500000D03*
X134275000Y-81550000D03*
X150275000Y-100450000D03*
%TO.N,ROW0*%
X153700000Y-95225000D03*
X153700000Y-90550000D03*
%TO.N,Net-(U1-~{RESET})*%
X149150000Y-104575000D03*
X130375000Y-83900000D03*
%TD*%
D15*
%TO.N,GND*%
X151550000Y-96225000D02*
X149600000Y-96225000D01*
X149600000Y-96225000D02*
X146775000Y-99050000D01*
%TO.N,+5V*%
X157100000Y-93625000D02*
X157100000Y-88325000D01*
X142015000Y-100500000D02*
X150225000Y-100500000D01*
X136075000Y-83350000D02*
X134275000Y-81550000D01*
X136075000Y-94560000D02*
X142015000Y-100500000D01*
X150225000Y-100500000D02*
X150275000Y-100450000D01*
X136075000Y-94560000D02*
X136075000Y-89500000D01*
X150275000Y-100450000D02*
X157100000Y-93625000D01*
X136075000Y-89500000D02*
X136075000Y-83350000D01*
D16*
%TO.N,ROW0*%
X153700000Y-95225000D02*
X153700000Y-90550000D01*
%TO.N,COL0*%
X159580000Y-110470000D02*
X160600000Y-110470000D01*
X96970000Y-110610000D02*
X110869733Y-110610000D01*
X110869733Y-110610000D02*
X115771133Y-115511400D01*
X154538600Y-115511400D02*
X159580000Y-110470000D01*
X115771133Y-115511400D02*
X154538600Y-115511400D01*
%TO.N,COL1*%
X146852195Y-110602500D02*
X116440000Y-110602500D01*
X179870000Y-110470000D02*
X173725000Y-104325000D01*
X173725000Y-104325000D02*
X164525000Y-104325000D01*
X148024695Y-111775000D02*
X146852195Y-110602500D01*
X164525000Y-104325000D02*
X157075000Y-111775000D01*
X157075000Y-111775000D02*
X148024695Y-111775000D01*
%TO.N,Net-(U1-~{RESET})*%
X130375000Y-92900000D02*
X130375000Y-83900000D01*
X130375000Y-92900000D02*
X142050000Y-104575000D01*
X142050000Y-104575000D02*
X149150000Y-104575000D01*
%TD*%
M02*
